<?xml version="1.0" standalone="no"?><!DOCTYPE svg PUBLIC "-//W3C//DTD SVG 1.1//EN" "http://www.w3.org/Graphics/SVG/1.1/DTD/svg11.dtd"><svg t="1740663282295" class="icon" viewBox="0 0 1024 1024" version="1.1" xmlns="http://www.w3.org/2000/svg" p-id="20349" xmlns:xlink="http://www.w3.org/1999/xlink" width="200" height="200"><path d="M118.53979 672.314219c45.079708-255.73035899 160.959925-350.633822 298.097282-388.718209 171.630962-47.799656 321.445036-13.525038 466.207048-81.648578 87.46198101-41.158399 83.854826 32.72021601 82.31679699 44.588521-22.147416 171.003676-112.654756 333.892533-306.12000299 411.21559601-211.012901 84.290755-419.269016-71.777767-570.344826 173.73385599-1.112334 1.807159-3.077082 2.920516-5.199419 2.92051599L64.426335 834.405921c-4.54757301 0-7.488555-4.796236-5.443989-8.857738C115.666346 712.97119799 197.38757901 616.041588 301.715693 538.76662c94.01011701-69.554122 206.484771-123.56013 335.51345-166.600389 10.44591-3.484358 6.036483-19.138896-4.687766-16.639982-98.93836 23.053042-188.342576 53.163827-271.330662 100.467179-86.72827 49.427736-166.504198 117.746728-242.667855 216.32079101L118.53979 672.314219zM118.53979 672.314219" fill="#08af25" p-id="20350"></path></svg>